<svg width="24" height="24" viewBox="0 0 24 24" fill="none" xmlns="http://www.w3.org/2000/svg">
<g clip-path="url(#clip0)">
<path d="M16.6452 2.12885H2.32258C1.04177 2.12885 0 3.17062 0 4.45143V12.774C0 14.0548 1.04177 15.0966 2.32258 15.0966H4.4071L4.45161 17.1937C4.46521 17.8228 5.18753 18.1752 5.69177 17.7956C9.50395 14.9215 8.96376 15.3287 9.27194 15.0966H16.6452C17.926 15.0966 18.9677 14.0548 18.9677 12.774V4.45143C18.9677 3.17062 17.926 2.12885 16.6452 2.12885ZM12.1452 11.3708H6.82258C6.39484 11.3708 6.04839 11.0243 6.04839 10.5966C6.04839 10.1688 6.39484 9.82239 6.82258 9.82239H12.1452C12.5729 9.82239 12.9194 10.1688 12.9194 10.5966C12.9194 11.0243 12.5729 11.3708 12.1452 11.3708ZM13.5484 7.98368H5.41935C4.99161 7.98368 4.64516 7.63723 4.64516 7.20949C4.64516 6.78175 4.99161 6.4353 5.41935 6.4353H13.5484C13.9761 6.4353 14.3226 6.78175 14.3226 7.20949C14.3226 7.63723 13.9761 7.98368 13.5484 7.98368ZM24 10.7901V17.1772C24 18.46 22.9602 19.4998 21.6774 19.4998H19.5895L19.5484 21.1164C19.5374 21.5369 19.1921 21.8708 18.7742 21.8708C18.4683 21.8708 18.6918 21.9583 14.7648 19.4998H11.371C10.7789 19.4998 10.238 19.2771 9.82756 18.9112C9.29593 18.4372 9.62932 16.0576 10.3416 16.0576H17.3853C18.8873 16.0576 20.1048 14.84 20.1048 13.3381V9.24175C20.1048 8.81415 20.4514 8.46755 20.879 8.46755H21.6774C22.9602 8.46755 24 9.50739 24 10.7901Z" fill="white"/>
</g>
<defs>
<clipPath id="clip0">
<rect width="24" height="24" fill="white"/>
</clipPath>
</defs>
</svg>
