<svg width="64" height="64" viewBox="0 0 64 64" fill="none" xmlns="http://www.w3.org/2000/svg">
    <g filter="url(#filter0_d)">
        <circle cx="32" cy="30" r="24" fill="#FF3333" />
        <circle cx="32" cy="30" r="22" stroke="white" stroke-width="4" />
    </g>
    <path
        d="M35.8562 38.9835C35.0212 39.3145 34.3565 39.5655 33.858 39.7393C33.3609 39.9131 32.7828 40 32.125 40C31.1142 40 30.3273 39.7517 29.767 39.2566C29.2067 38.7614 28.928 38.1339 28.928 37.3712C28.928 37.0747 28.9486 36.7712 28.9898 36.4623C29.0323 36.1534 29.0996 35.8058 29.1916 35.4155L30.2367 31.7081C30.3287 31.3523 30.4084 31.0144 30.4715 30.6999C30.5347 30.3827 30.5649 30.0917 30.5649 29.8269C30.5649 29.3552 30.4674 29.0242 30.2738 28.838C30.0774 28.6518 29.708 28.5608 29.1573 28.5608C28.8881 28.5608 28.6107 28.6008 28.3265 28.6849C28.0449 28.7718 27.8005 28.8504 27.6 28.9276L27.876 27.7857C28.5599 27.5057 29.215 27.2657 29.8398 27.0671C30.4647 26.8657 31.0552 26.7664 31.6114 26.7664C32.6152 26.7664 33.3898 27.0119 33.9349 27.4974C34.4774 27.9843 34.7507 28.6173 34.7507 29.3952C34.7507 29.5566 34.7315 29.8407 34.6944 30.2462C34.6573 30.653 34.5873 31.0241 34.4856 31.3647L33.4461 35.061C33.3609 35.3575 33.2854 35.6968 33.2167 36.0761C33.1494 36.4554 33.1165 36.745 33.1165 36.9395C33.1165 37.4305 33.225 37.7657 33.4447 37.9436C33.6617 38.1215 34.0421 38.2111 34.5804 38.2111C34.8344 38.2111 35.1187 38.1656 35.4401 38.0774C35.7587 37.9891 35.9894 37.9105 36.1349 37.8429L35.8562 38.9835ZM35.6722 23.9804C35.1874 24.4328 34.6037 24.659 33.9212 24.659C33.2401 24.659 32.6523 24.4328 32.1634 23.9804C31.6773 23.528 31.4315 22.9777 31.4315 22.335C31.4315 21.6937 31.6786 21.142 32.1634 20.6855C32.6523 20.2276 33.2401 20 33.9212 20C34.6037 20 35.1888 20.2276 35.6722 20.6855C36.1569 21.142 36.4 21.6937 36.4 22.335C36.4 22.9791 36.1569 23.528 35.6722 23.9804Z"
        fill="white" />
    <defs>
        <filter id="filter0_d" x="0" y="0" width="64" height="64" filterUnits="userSpaceOnUse"
            color-interpolation-filters="sRGB">
            <feFlood flood-opacity="0" result="BackgroundImageFix" />
            <feColorMatrix in="SourceAlpha" type="matrix"
                values="0 0 0 0 0 0 0 0 0 0 0 0 0 0 0 0 0 0 127 0" />
            <feOffset dy="2" />
            <feGaussianBlur stdDeviation="4" />
            <feColorMatrix type="matrix"
                values="0 0 0 0 0.16 0 0 0 0 0.173333 0 0 0 0 0.2 0 0 0 0.1 0" />
            <feBlend mode="normal" in2="BackgroundImageFix" result="effect1_dropShadow" />
            <feBlend mode="normal" in="SourceGraphic" in2="effect1_dropShadow" result="shape" />
        </filter>
    </defs>
</svg>
