<svg width="69" height="24" viewBox="0 0 69 24" fill="none" xmlns="http://www.w3.org/2000/svg">
    <path
        d="M9.39604 8.83833H2.72556V15.8084H0.602486V0.0431213H10.5006V1.72456H2.72556V7.15689H9.3817V8.83833H9.39604Z"
        fill="white" />
    <path
        d="M12.0499 9.84432C12.0499 8.1054 12.5233 6.68264 13.4557 5.56169C14.3882 4.44073 15.6649 3.88025 17.2859 3.88025C18.9069 3.88025 20.1979 4.44073 21.1447 5.56169C22.0915 6.68264 22.5649 8.1054 22.5649 9.84432V10.0886C22.5649 11.8419 22.0915 13.2647 21.159 14.3713C20.2123 15.4779 18.9356 16.0383 17.3146 16.0383C15.6936 16.0383 14.4168 15.4779 13.4701 14.3713C12.5233 13.2503 12.0499 11.8276 12.0499 10.0886V9.84432ZM14.1873 10.0886C14.1873 11.3246 14.4455 12.3593 14.9763 13.1641C15.5071 13.9689 16.2817 14.3713 17.3146 14.3713C18.3331 14.3713 19.1077 13.9689 19.6385 13.1641C20.1692 12.3593 20.4274 11.3246 20.4274 10.0886V9.84432C20.4274 8.62276 20.1549 7.58803 19.6241 6.78324C19.0934 5.96408 18.3187 5.56169 17.2859 5.56169C16.2674 5.56169 15.4927 5.96408 14.9763 6.78324C14.4455 7.6024 14.1873 8.62276 14.1873 9.84432V10.0886Z"
        fill="white" />
    <path
        d="M30.9424 5.97845L29.8522 5.9066C29.2927 5.9066 28.8193 6.03594 28.432 6.30899C28.0447 6.58205 27.7434 6.9557 27.5426 7.42995V15.8084H25.3908V4.09582H27.2987L27.4996 5.806C27.8295 5.2024 28.2455 4.72815 28.7333 4.38324C29.221 4.03833 29.7805 3.88025 30.426 3.88025C30.5838 3.88025 30.7416 3.89462 30.885 3.92336C31.0285 3.95211 31.1432 3.98085 31.2437 4.00959L30.9424 5.97845Z"
        fill="white" />
    <path
        d="M36.5513 1.26468V4.09582H38.7748V5.67666H36.5513V12.7904C36.5513 13.3365 36.6661 13.7246 36.8956 13.9545C37.1252 14.1844 37.4264 14.285 37.7994 14.285C37.9285 14.285 38.0576 14.2707 38.2154 14.2419C38.3732 14.2132 38.4879 14.1701 38.5884 14.1413L38.8753 15.6072C38.7175 15.7365 38.4879 15.8371 38.1724 15.9234C37.8568 16.0096 37.5555 16.0527 37.2543 16.0527C36.3936 16.0527 35.6906 15.794 35.1886 15.2623C34.6721 14.7449 34.4139 13.9114 34.4139 12.8048V5.67666H32.5491V4.09582H34.4139V1.26468H36.5513Z"
        fill="white" />
    <path
        d="M46.1339 16.0383C44.4555 16.0383 43.1357 15.5066 42.189 14.4288C41.2422 13.3509 40.7688 11.9425 40.7688 10.1892V9.71498C40.7688 8.03354 41.2565 6.63953 42.232 5.53294C43.2075 4.42636 44.3981 3.88025 45.7896 3.88025C47.3532 3.88025 48.5295 4.36887 49.3185 5.34612C50.1075 6.32336 50.4948 7.61678 50.4948 9.24073V10.3617H42.9923L42.9636 10.4192C42.9636 11.5976 43.2218 12.5461 43.7382 13.2791C44.2547 14.012 45.058 14.3856 46.1195 14.3856C46.8368 14.3856 47.4823 14.285 48.0274 14.0838C48.5725 13.8826 49.0459 13.5952 49.4333 13.2359L50.2653 14.6156C49.8493 15.018 49.2898 15.3629 48.6012 15.6359C47.927 15.909 47.1093 16.0383 46.1339 16.0383ZM45.8039 5.56169C45.058 5.56169 44.4412 5.84911 43.9534 6.42396C43.4657 6.99881 43.1644 7.73175 43.064 8.62276L43.0927 8.68025H48.3861V8.50779C48.3861 7.65989 48.1709 6.9557 47.7549 6.39522C47.3245 5.83474 46.679 5.56169 45.8039 5.56169Z"
        fill="white" />
    <path d="M53.3351 15.1473H56.4193V15.8227H52.4744V9.48502H53.3351V15.1473Z" fill="white" />
    <path
        d="M58.2698 9.91614H57.4091V9.03949H58.2698V9.91614ZM58.2698 15.8084H57.4091V11.109H58.2698V15.8084Z"
        fill="white" />
    <path
        d="M60.0343 15.8084V11.7413H59.3027V11.109H60.0343V10.5197C60.0343 10.0167 60.1634 9.62872 60.4216 9.35567C60.6798 9.08262 61.0528 8.9389 61.5262 8.9389C61.6266 8.9389 61.727 8.95328 61.8274 8.96765C61.9278 8.98202 62.0426 9.01076 62.1574 9.0395L62.057 9.68621C61.9996 9.67184 61.9422 9.65747 61.8705 9.65747C61.7987 9.6431 61.7127 9.6431 61.6409 9.6431C61.3971 9.6431 61.2106 9.71495 61.0815 9.87304C60.9667 10.0167 60.895 10.2323 60.895 10.5197V11.109H61.7414V11.7413H60.895V15.8084H60.0343Z"
        fill="white" />
    <path
        d="M64.5386 15.909C63.8644 15.909 63.3337 15.6934 62.9607 15.2623C62.5877 14.8311 62.3869 14.2563 62.3869 13.5664V13.3653C62.3869 12.6898 62.5877 12.1293 62.975 11.6838C63.3624 11.2383 63.8357 11.0227 64.4095 11.0227C65.0407 11.0227 65.5141 11.2239 65.8297 11.612C66.1453 12 66.3031 12.5173 66.3031 13.1784V13.6239H63.2906L63.2763 13.6527C63.2763 14.1269 63.3767 14.515 63.5919 14.8024C63.807 15.0898 64.1226 15.2479 64.553 15.2479C64.8399 15.2479 65.0981 15.2048 65.3133 15.1185C65.5285 15.0323 65.7149 14.9173 65.8727 14.7736L66.2027 15.3341C66.0305 15.4922 65.8154 15.6359 65.5428 15.7509C65.2702 15.8515 64.926 15.909 64.5386 15.909ZM64.4095 11.6982C64.1083 11.6982 63.8644 11.8132 63.6636 12.0431C63.4628 12.273 63.348 12.5748 63.305 12.9341L63.3193 12.9629H65.4424V12.891C65.4424 12.5461 65.3563 12.273 65.1842 12.0431C65.0264 11.8132 64.7538 11.6982 64.4095 11.6982Z"
        fill="white" />
    <path
        d="M66.0736 9.15449C66.0736 8.72335 66.2171 8.36407 66.4896 8.07665C66.7622 7.78922 67.1064 7.64551 67.5081 7.64551C67.9098 7.64551 68.2397 7.78922 68.5266 8.07665C68.8135 8.36407 68.9426 8.72335 68.9426 9.15449C68.9426 9.58563 68.7992 9.94491 68.5266 10.2323C68.2397 10.5198 67.9098 10.6778 67.5081 10.6778C67.1064 10.6778 66.7765 10.5341 66.4896 10.2323C66.2171 9.93054 66.0736 9.57126 66.0736 9.15449ZM66.2457 9.15449C66.2457 9.52814 66.3748 9.84431 66.6187 10.1174C66.8626 10.376 67.1638 10.5054 67.5081 10.5054C67.8524 10.5054 68.1536 10.376 68.3975 10.1174C68.6414 9.85868 68.7705 9.54251 68.7705 9.15449C68.7705 8.78084 68.6414 8.46467 68.3975 8.20599C68.1536 7.9473 67.8524 7.81796 67.5081 7.81796C67.1638 7.81796 66.8626 7.9473 66.6187 8.20599C66.3748 8.4503 66.2457 8.76647 66.2457 9.15449ZM67.1782 9.26946V9.98802H66.9773V8.26347H67.4938C67.6946 8.26347 67.838 8.30659 67.9528 8.39281C68.0676 8.47904 68.1106 8.60838 68.1106 8.76647C68.1106 8.85269 68.0819 8.93892 68.0389 9.01078C67.9958 9.08263 67.9241 9.12575 67.8237 9.16886C67.9098 9.1976 67.9815 9.25509 68.0245 9.32695C68.0676 9.3988 68.0819 9.48503 68.0819 9.58563V9.7006C68.0819 9.75808 68.0819 9.8012 68.0963 9.84431C68.0963 9.88742 68.1106 9.93054 68.1249 9.95928V9.98802H67.9241C67.9098 9.95928 67.9098 9.91617 67.8954 9.85868C67.8954 9.8012 67.8954 9.74371 67.8954 9.68623V9.57126C67.8954 9.45629 67.8667 9.37006 67.8237 9.32695C67.7663 9.28383 67.6803 9.25509 67.5655 9.25509H67.1782V9.26946ZM67.1782 9.08263H67.5511C67.6516 9.08263 67.752 9.05389 67.8237 8.99641C67.8954 8.93892 67.9385 8.86707 67.9385 8.76647C67.9385 8.6515 67.9098 8.56527 67.8524 8.52216C67.795 8.47904 67.6803 8.4503 67.5225 8.4503H67.1925V9.08263H67.1782Z"
        fill="white" />
    <path d="M50.0214 17.4467H0V17.7485H50.0214V17.4467Z" fill="white" />
    <path d="M1.24804 19.0276V23.8276H0.61685V19.0276H1.24804Z" fill="white" />
    <path
        d="M5.09253 21.3126C5.09253 20.9533 5.09253 20.6659 5.06384 20.3785H5.62329L5.65199 20.9533H5.66633C5.83847 20.6371 6.24014 20.3066 6.79959 20.3066C7.27298 20.3066 8.01893 20.594 8.01893 21.7725V23.8276H7.38774V21.8443C7.38774 21.2838 7.18691 20.824 6.58442 20.824C6.18275 20.824 5.85282 21.1114 5.73806 21.4707C5.70937 21.5425 5.69502 21.6575 5.69502 21.7581V23.8276H5.06384V21.3126H5.09253Z"
        fill="white" />
    <path
        d="M11.6626 23.1952C11.8491 23.3102 12.179 23.4395 12.4946 23.4395C12.9393 23.4395 13.1545 23.224 13.1545 22.9222C13.1545 22.6204 12.9823 22.4623 12.5233 22.2898C11.8921 22.0599 11.6052 21.7293 11.6052 21.3126C11.6052 20.7521 12.0643 20.3066 12.7959 20.3066C13.1401 20.3066 13.4557 20.3928 13.6422 20.5222L13.4988 20.982C13.3697 20.8958 13.1114 20.7808 12.7959 20.7808C12.4229 20.7808 12.222 20.9964 12.222 21.2551C12.222 21.5425 12.4229 21.6719 12.8676 21.8443C13.4557 22.0599 13.7713 22.3617 13.7713 22.879C13.7713 23.497 13.2979 23.9138 12.4946 23.9138C12.1216 23.9138 11.763 23.8132 11.5191 23.6695L11.6626 23.1952Z"
        fill="white" />
    <path
        d="M20.1693 22.879C20.1693 23.2383 20.1693 23.5545 20.1979 23.8275H19.6385L19.6098 23.2671H19.5955C19.4377 23.5401 19.0647 23.9138 18.4622 23.9138C17.9171 23.9138 17.2715 23.612 17.2715 22.4048V20.3928H17.9027V22.2755C17.9027 22.9365 18.1036 23.382 18.6774 23.382C19.0934 23.382 19.3946 23.0946 19.5094 22.8072C19.5381 22.721 19.5668 22.606 19.5668 22.491V20.3784H20.1979V22.879H20.1693Z"
        fill="white" />
    <path
        d="M23.9133 21.4563C23.9133 21.0539 23.9133 20.709 23.8846 20.3785H24.4297L24.4584 21.0683H24.4728C24.6306 20.6084 25.0179 20.321 25.4339 20.321C25.4913 20.321 25.5486 20.321 25.606 20.3353V20.9246C25.5486 20.9102 25.4769 20.9102 25.3908 20.9102C24.9462 20.9102 24.6306 21.2407 24.5445 21.7006C24.5301 21.7868 24.5301 21.8874 24.5301 21.988V23.8276H23.899V21.4563H23.9133Z"
        fill="white" />
    <path
        d="M31.3297 22.994C31.3297 23.2958 31.3441 23.5832 31.3728 23.8132H30.8133L30.7703 23.382H30.7559C30.5694 23.6551 30.1965 23.8994 29.6944 23.8994C28.9915 23.8994 28.6329 23.4108 28.6329 22.9078C28.6329 22.0743 29.3788 21.6144 30.7129 21.6287V21.5569C30.7129 21.2838 30.6412 20.7665 29.9239 20.7665C29.594 20.7665 29.264 20.8527 29.0202 21.0252L28.8767 20.6084C29.1636 20.4359 29.5796 20.3066 30.01 20.3066C31.0715 20.3066 31.3154 21.0252 31.3154 21.715V22.994H31.3297ZM30.7272 22.0599C30.0387 22.0455 29.264 22.1605 29.264 22.8359C29.264 23.2527 29.5366 23.4395 29.8522 23.4395C30.3112 23.4395 30.5981 23.1521 30.6986 22.8647C30.7129 22.7928 30.7272 22.721 30.7272 22.6635V22.0599Z"
        fill="white" />
    <path
        d="M35.0451 21.3126C35.0451 20.9533 35.0451 20.6659 35.0164 20.3785H35.5759L35.6046 20.9533H35.6189C35.7911 20.6371 36.1927 20.3066 36.7522 20.3066C37.2256 20.3066 37.9715 20.594 37.9715 21.7725V23.8276H37.3403V21.8443C37.3403 21.2838 37.1395 20.824 36.537 20.824C36.1353 20.824 35.8054 21.1114 35.6906 21.4707C35.662 21.5425 35.6476 21.6575 35.6476 21.7581V23.8276H35.0164V21.3126H35.0451Z"
        fill="white" />
    <path
        d="M44.1686 23.6982C44.0108 23.7701 43.6379 23.8994 43.1788 23.8994C42.1316 23.8994 41.4574 23.1952 41.4574 22.1461C41.4574 21.0826 42.189 20.3066 43.3079 20.3066C43.6809 20.3066 44.0108 20.3928 44.183 20.4934L44.0395 20.9677C43.8961 20.8958 43.6522 20.8096 43.3079 20.8096C42.5189 20.8096 42.0886 21.3988 42.0886 22.1174C42.0886 22.9078 42.605 23.4108 43.2792 23.4108C43.6379 23.4108 43.8674 23.3246 44.0539 23.2527L44.1686 23.6982Z"
        fill="white" />
    <path
        d="M47.9127 22.218C47.927 23.0659 48.4578 23.4108 49.089 23.4108C49.5337 23.4108 49.8206 23.3389 50.0501 23.2383L50.1649 23.6838C49.9497 23.7844 49.5624 23.8994 49.0173 23.8994C47.9557 23.8994 47.3245 23.1952 47.3245 22.1605C47.3245 21.1258 47.9414 20.3066 48.9455 20.3066C50.0788 20.3066 50.3657 21.2838 50.3657 21.9162C50.3657 22.0455 50.3657 22.1317 50.3514 22.2036H47.9127V22.218ZM49.7632 21.7725C49.7632 21.3844 49.6054 20.7665 48.8882 20.7665C48.2426 20.7665 47.9701 21.3413 47.927 21.7725H49.7632Z"
        fill="white" />
</svg>
