<svg width="23" height="24" viewBox="0 0 23 24" fill="none" xmlns="http://www.w3.org/2000/svg">
    <path
        d="M16 6H20C21.1046 6 22 6.89543 22 8V20C22 21.6569 20.6569 23 19 23C17.3431 23 16 21.6569 16 20V6Z"
        stroke="#393B54" stroke-width="2" />
    <path
        d="M3 2H14C14.5523 2 15 2.44772 15 3V20H17V3C17 1.34315 15.6569 0 14 0H3C1.34315 0 0 1.34315 0 3V21C0 22.6569 1.34315 24 3 24H19V22H3C2.44772 22 2 21.5523 2 21V3C2 2.44772 2.44772 2 3 2Z"
        fill="#393B54" />
    <path
        d="M17 11H18V19C18 19.7403 17.5978 20.3866 17 20.7324V22.874C18.7252 22.4299 20 20.8638 20 19V11C20 9.89543 19.1046 9 18 9H15V12H17V11Z"
        fill="#393B54" />
    <path fill-rule="evenodd" clip-rule="evenodd"
        d="M5 5V8H12V5H5ZM4 3C3.44772 3 3 3.44772 3 4V9C3 9.55228 3.44771 10 4 10H13C13.5523 10 14 9.55228 14 9V4C14 3.44772 13.5523 3 13 3H4Z"
        fill="#393B54" />
    <rect x="3" y="12" width="11" height="2" rx="1" fill="#393B54" />
    <rect x="3" y="15" width="11" height="2" rx="1" fill="#393B54" />
    <rect x="3" y="18" width="11" height="2" rx="1" fill="#393B54" />
</svg>
