<?xml version="1.0" encoding="UTF-8"?>
<svg xmlns="http://www.w3.org/2000/svg" xmlns:xlink="http://www.w3.org/1999/xlink" width="50pt" height="50pt" viewBox="0 0 50 50" version="1.1">
<g id="surface18908838">
<path style=" stroke:none;fill-rule:nonzero;fill:rgb(100%,100%,100%);fill-opacity:1;" d="M 25 2 C 12.308594 2 2 12.308594 2 25 C 2 37.691406 12.308594 48 25 48 C 37.691406 48 48 37.691406 48 25 C 48 12.308594 37.691406 2 25 2 Z M 25 4 C 36.609375 4 46 13.390625 46 25 C 46 36.609375 36.609375 46 25 46 C 13.390625 46 4 36.609375 4 25 C 4 13.390625 13.390625 4 25 4 Z M 25 12 C 21.214844 12 19.03125 13.746094 18.011719 15.496094 C 16.992188 17.246094 17 19 17 19 L 19 19 C 19 19 19.007812 17.753906 19.738281 16.503906 C 20.46875 15.253906 21.785156 14 25 14 C 28.261719 14 29.609375 15.082031 30.308594 16.074219 C 31.003906 17.066406 31 18 31 18 C 31 19.109375 30.363281 20.085938 29.160156 21.117188 C 28.8125 21.414062 28.414062 21.707031 27.992188 22 L 17 22 L 17 24 L 24.726562 24 C 24.648438 24.042969 24.582031 24.085938 24.503906 24.128906 C 23.449219 24.734375 22.394531 25.347656 21.398438 26 L 17 26 L 17 28 L 18.863281 28 C 17.78125 29.105469 17 30.421875 17 32 C 17 32 17.003906 33.566406 18.054688 35.074219 C 19.109375 36.582031 21.261719 38 25 38 C 28.785156 38 30.96875 36.253906 31.988281 34.503906 C 33.007812 32.753906 33 31 33 31 L 31 31 C 31 31 30.992188 32.246094 30.261719 33.496094 C 29.53125 34.746094 28.214844 36 25 36 C 21.738281 36 20.390625 34.917969 19.691406 33.925781 C 18.996094 32.933594 19 32 19 32 C 19 30.890625 19.636719 29.914062 20.835938 28.882812 C 21.1875 28.585938 21.585938 28.292969 22.003906 28 L 33 28 L 33 26 L 25.273438 26 C 25.351562 25.957031 25.417969 25.914062 25.496094 25.871094 C 26.550781 25.265625 27.605469 24.652344 28.601562 24 L 33 24 L 33 22 L 31.132812 22 C 32.21875 20.894531 33 19.578125 33 18 C 33 18 32.996094 16.433594 31.941406 14.925781 C 30.890625 13.417969 28.738281 12 25 12 Z M 25 12 "/>
</g>
</svg>
