<svg width="24" height="24" viewBox="0 0 24 24" fill="none" xmlns="http://www.w3.org/2000/svg">
    <path
        d="M17 6C17 7.71792 16.3975 9.51548 15.4295 10.8677C14.4531 12.2316 13.2198 13 12 13C10.7802 13 9.54686 12.2316 8.57049 10.8677C7.60251 9.51548 7 7.71792 7 6C7 4.31156 7.57926 3.08702 8.44088 2.28018C9.31291 1.4636 10.5551 1 12 1C13.4449 1 14.6871 1.4636 15.5591 2.28018C16.4207 3.08702 17 4.31156 17 6Z"
        stroke="white" stroke-width="2" />
    <path
        d="M21.9508 23.0014C22.0053 23.551 22.4477 24 23 24C23.5523 24 24.0043 23.5507 23.959 23.0003C23.4509 16.8406 18.2908 12 12 12C5.70923 12 0.549057 16.8406 0.041049 23.0003C-0.00434558 23.5507 0.447715 24 1 24C1.55228 24 1.99475 23.551 2.04924 23.0014C2.55031 17.9474 6.81417 14 12 14C17.1858 14 21.4497 17.9474 21.9508 23.0014Z"
        fill="white" />
</svg>
