<svg width="24" height="24" viewBox="0 0 24 24" fill="none" xmlns="http://www.w3.org/2000/svg">
    <path
        d="M4 7H20C21.1046 7 22 7.89543 22 9V13C22 14.1046 21.1046 15 20 15H15V16C15 16.3506 14.9398 16.6872 14.8293 17H20C22.2091 17 24 15.2091 24 13V9C24 6.79086 22.2091 5 20 5H4C1.79086 5 0 6.79086 0 9V13C0 15.2091 1.79086 17 4 17H9.17071C9.06015 16.6872 9 16.3506 9 16V15H4C2.89543 15 2 14.1046 2 13V9C2 7.89543 2.89543 7 4 7Z"
        fill="#393B54" />
    <path fill-rule="evenodd" clip-rule="evenodd"
        d="M13 16V15C13 14.4477 12.5523 14 12 14C11.4477 14 11 14.4477 11 15V16C11 16.5523 11.4477 17 12 17C12.5523 17 13 16.5523 13 16ZM12 12C10.3431 12 9 13.3431 9 15V16C9 17.6569 10.3431 19 12 19C13.6569 19 15 17.6569 15 16V15C15 13.3431 13.6569 12 12 12Z"
        fill="#393B54" />
    <rect x="3" y="8" width="2" height="2" rx="1" fill="#393B54" />
    <rect x="19" y="8" width="2" height="2" rx="1" fill="#393B54" />
    <path
        d="M9.5 2H14.5C14.7761 2 15 2.22386 15 2.5V3C15 3.55228 15.4477 4 16 4C16.5523 4 17 3.55228 17 3V2C17 0.89543 16.1046 0 15 0H9C7.89543 0 7 0.895431 7 2V3C7 3.55228 7.44771 4 8 4C8.55229 4 9 3.55228 9 3V2.5C9 2.22386 9.22386 2 9.5 2Z"
        fill="#393B54" />
    <path
        d="M0 10V20C0 22.2091 1.79086 24 4 24H20C22.2091 24 24 22.2091 24 20V10H22V20C22 21.1046 21.1046 22 20 22H4C2.89543 22 2 21.1046 2 20V10H0Z"
        fill="#393B54" />
</svg>
