<svg width="48" height="16" viewBox="0 0 48 16" fill="none" xmlns="http://www.w3.org/2000/svg">
<path d="M0 0H48L40 8L48 16H0V0Z" fill="white"/>
<path d="M11.1724 10.1792H8.14307L7.50928 12H6.09668L9.05078 4.17969H10.27L13.2295 12H11.8115L11.1724 10.1792ZM8.52441 9.0835H10.791L9.65771 5.83936L8.52441 9.0835ZM15.8022 9.70117H15.1416V12H13.8364V6.18848H15.1416V8.50879H15.7163L17.3223 6.18848H18.9336L16.8335 8.9707L19.1108 12H17.4136L15.8022 9.70117ZM19.8789 6.18848H21.1841V10.958H23.4507V6.18848H24.7559V10.958H25.5454L25.438 13.7241H24.251V12H19.8789V6.18848ZM27.855 12H26.5498V6.18848H27.855V12ZM26.4692 4.6792C26.4692 4.47868 26.5319 4.31217 26.6572 4.17969C26.7861 4.0472 26.9688 3.98096 27.2051 3.98096C27.4414 3.98096 27.624 4.0472 27.7529 4.17969C27.8818 4.31217 27.9463 4.47868 27.9463 4.6792C27.9463 4.87614 27.8818 5.04085 27.7529 5.17334C27.624 5.30225 27.4414 5.3667 27.2051 5.3667C26.9688 5.3667 26.7861 5.30225 26.6572 5.17334C26.5319 5.04085 26.4692 4.87614 26.4692 4.6792ZM33.9351 6.18848V12H32.6353V9.86768H31.416L30.1753 12H28.8218L30.1914 9.65283C29.8333 9.50244 29.5576 9.2876 29.3643 9.0083C29.1745 8.729 29.0796 8.40853 29.0796 8.04688C29.0796 7.50618 29.2873 7.06396 29.7026 6.72021C30.1216 6.37288 30.6855 6.19564 31.3945 6.18848H33.9351ZM30.3848 8.0791C30.3848 8.32259 30.4743 8.52132 30.6533 8.67529C30.8359 8.82568 31.0687 8.90088 31.3516 8.90088H32.6353V7.2251H31.4321C31.1134 7.2251 30.8592 7.30566 30.6694 7.4668C30.4797 7.62793 30.3848 7.83203 30.3848 8.0791Z" fill="#FF0000"/>
</svg>
