<svg width="56" height="56" viewBox="0 0 56 56" fill="none" xmlns="http://www.w3.org/2000/svg">
<path d="M28 0C12.5602 0 0 12.5602 0 28C0 43.4398 12.5602 56 28 56C43.4398 56 56 43.4398 56 28C56 12.5602 43.4398 0 28 0ZM42.1914 22.0664L27.0246 37.2328C26.5696 37.6878 25.9723 37.9168 25.375 37.9168C24.7777 37.9168 24.1804 37.6878 23.7254 37.2328L16.1422 29.6496C15.2296 28.7374 15.2296 27.2626 16.1422 26.3504C17.0544 25.4378 18.5288 25.4378 19.4414 26.3504L25.375 32.284L38.8922 18.7672C39.8044 17.8546 41.2788 17.8546 42.1914 18.7672C43.1036 19.6794 43.1036 21.1538 42.1914 22.0664Z" fill="#85E738"/>
</svg>
