<svg xmlns="http://www.w3.org/2000/svg" width="32" height="32" viewBox="0 0 32 32" fill="none">
<g clip-path="url(#clip0)">
<path d="M29.8179 26.1819H24.7271C21.519 26.1819 18.909 23.5718 18.909 20.3638C18.909 17.1558 21.519 14.5457 24.7271 14.5457H29.8179C30.2199 14.5457 30.5452 14.2204 30.5452 13.8185V11.6367C30.5452 10.1116 29.3623 8.87133 27.8677 8.75106L23.6909 1.45572C23.3039 0.781006 22.6789 0.298763 21.931 0.0985167C21.1867 -0.100366 20.4083 0.00408642 19.7421 0.39183L5.42396 8.7276H2.90925C1.30489 8.7276 0.000183105 10.0322 0.000183105 11.6367V29.0909C0.000183105 30.6953 1.30482 32 2.90925 32H27.6361C29.2405 32 30.5452 30.6954 30.5452 29.0909V26.9092C30.5452 26.5072 30.2199 26.1819 29.8179 26.1819ZM24.5929 5.95974L26.1776 8.7276H19.8387L24.5929 5.95974ZM8.31482 8.7276L20.4743 1.64888C20.8031 1.4564 21.1873 1.40527 21.5546 1.50331C21.926 1.60272 22.2357 1.84278 22.4282 2.17871L22.4297 2.18137L11.186 8.7276H8.31482Z" fill="white"/>
<path d="M29.8179 16.0002H24.7271C22.3209 16.0002 20.3635 17.9576 20.3635 20.3638C20.3635 22.77 22.3209 24.7273 24.7271 24.7273H29.8179C31.0211 24.7273 31.9997 23.7487 31.9997 22.5456V18.182C31.9997 16.9789 31.0211 16.0002 29.8179 16.0002ZM24.7271 21.8183C23.9253 21.8183 23.2726 21.1656 23.2726 20.3638C23.2726 19.562 23.9253 18.9093 24.7271 18.9093C25.5289 18.9093 26.1816 19.562 26.1816 20.3638C26.1817 21.1656 25.529 21.8183 24.7271 21.8183Z" fill="white"/>
</g>
<defs>
<clipPath id="clip0">
<rect width="32" height="32" fill="white"/>
</clipPath>
</defs>
</svg>