<svg xmlns="http://www.w3.org/2000/svg" width="32" height="32" viewBox="0 0 32 32" fill="none">
<path d="M7.92773 19.5244V13.4114C7.92773 12.9702 7.99097 12.54 8.10938 12.1294H3.9873C3.31885 12.1294 2.71265 12.4014 2.27368 12.8403C1.83472 13.2793 1.5625 13.8857 1.5625 14.554V19.4182C1.5625 20.0103 1.77856 20.5554 2.13647 20.9795C2.32251 21.2002 2.54761 21.3872 2.80103 21.5303V28.6003C2.80103 29.1172 3.21997 29.5361 3.73657 29.5361H9.48413V23.0002C8.50146 22.113 7.92773 20.8491 7.92773 19.5244Z" fill="white"/>
<path d="M6.61548 11.0227C8.63672 11.0227 10.281 9.37842 10.281 7.35718C10.281 5.33594 8.63672 3.69165 6.61548 3.69165C4.59424 3.69165 2.94995 5.33594 2.94995 7.35718C2.94995 9.37842 4.59424 11.0227 6.61548 11.0227Z" fill="white"/>
<path d="M19.2151 10.6042H12.606C11.8325 10.6042 11.1306 10.9194 10.6223 11.4275C10.114 11.9358 9.79907 12.6377 9.79907 13.4114V19.5244C9.79907 20.21 10.0491 20.8413 10.4629 21.3318C10.7083 21.6226 11.012 21.863 11.3555 22.0349V31.0642C11.3555 31.5811 11.7744 32 12.2913 32H19.53C20.0469 32 20.4658 31.5811 20.4658 31.0642V22.0349C20.8093 21.863 21.113 21.6226 21.3582 21.3318C21.7722 20.8413 22.0222 20.2102 22.0222 19.5244V13.4114C22.0222 12.6377 21.7073 11.9358 21.199 11.4277C20.6907 10.9194 19.9888 10.6042 19.2151 10.6042Z" fill="white"/>
<path d="M15.9092 8.73291C18.3169 8.73291 20.2756 6.77417 20.2756 4.36646C20.2756 1.95874 18.3169 0 15.9092 0C13.5015 0 11.5427 1.95874 11.5427 4.36646C11.5427 6.77417 13.5015 8.73291 15.9092 8.73291Z" fill="white"/>
<path d="M29.6731 12.8403C29.2341 12.4014 28.6279 12.1294 27.9595 12.1294H23.7119C23.8301 12.54 23.8936 12.9702 23.8936 13.4114V19.5244C23.8936 20.8489 23.3198 22.113 22.3372 23.0002V29.5293C22.374 29.5337 22.4119 29.5361 22.4502 29.5361H28.21C28.7268 29.5361 29.1458 29.1172 29.1458 28.6003V21.5303C29.3989 21.3875 29.624 21.2002 29.8103 20.9795C30.1682 20.5554 30.3843 20.0103 30.3843 19.4182V14.554C30.3843 13.8857 30.1121 13.2793 29.6731 12.8403Z" fill="white"/>
<path d="M25.3289 11.0227C27.3501 11.0227 28.9944 9.37842 28.9944 7.35718C28.9944 5.33594 27.3501 3.69165 25.3289 3.69165C23.3079 3.69165 21.6633 5.33594 21.6633 7.35718C21.6633 9.37842 23.3079 11.0227 25.3289 11.0227Z" fill="white"/>
</svg>