<svg xmlns="http://www.w3.org/2000/svg" width="32" height="32" viewBox="0 0 32 32" fill="none">
<g clip-path="url(#clip0)">
<path d="M5.36902 4.04306C8.30083 1.42956 12.0404 0 16 0C19.9597 0 23.6992 1.42956 26.631 4.04306L21.6666 9.0075C20.1195 7.75219 18.1476 7 16 7C13.8524 7 11.8806 7.75219 10.3334 9.00748L5.36902 4.04306Z" fill="white"/>
<path d="M9.0076 10.3333L4.04319 5.36887C1.42963 8.30068 0 12.0402 0 16C0 19.9597 1.42956 23.6992 4.04306 26.631L9.00748 21.6666C7.75219 20.1195 7 18.1476 7 16C7 13.8524 7.75224 11.8804 9.0076 10.3333Z" fill="white"/>
<path d="M10.3333 22.9924L5.3689 27.9568C8.30083 30.5704 12.0403 32 16 32C19.9598 32 23.6993 30.5704 26.6311 27.9568L21.6667 22.9924C20.1196 24.2478 18.1476 25 16 25C13.8524 25 11.8804 24.2478 10.3333 22.9924Z" fill="white"/>
<path d="M22.9926 21.6665L27.9569 26.6309C30.5704 23.6992 32 19.9597 32 16C32 12.0402 30.5704 8.30074 27.9568 5.3688L22.9924 10.3333C24.2478 11.8804 25 13.8524 25 16C25 18.1475 24.2478 20.1194 22.9926 21.6665Z" fill="white"/>
<path d="M16 22C15.5656 22 15.2131 21.6475 15.2131 21.2131C15.2131 20.7788 15.5656 20.4262 16 20.4262C16.4344 20.4262 16.7869 20.7788 16.7869 21.2131C16.7869 21.6475 16.4344 22 16 22ZM17.2622 16.8168C16.9734 16.9411 16.7869 17.2252 16.7869 17.5399V18.0656C16.7869 18.4999 16.4344 18.8525 16 18.8525C15.5656 18.8525 15.2131 18.4999 15.2131 18.0656V17.5399C15.2131 16.5957 15.7734 15.745 16.6397 15.3713C17.4337 15.029 17.9672 14.1485 17.9672 13.541C17.9672 12.4567 17.0843 11.5738 16 11.5738C14.9157 11.5738 14.0328 12.4567 14.0328 13.541C14.0328 13.9753 13.6803 14.3279 13.2459 14.3279C12.8115 14.3279 12.459 13.9753 12.459 13.541C12.459 11.5887 14.0477 10 16 10C17.9523 10 19.541 11.5887 19.541 13.541C19.541 14.8488 18.5613 16.2573 17.2622 16.8168Z" fill="white"/>
</g>
<defs>
<clipPath id="clip0">
<rect width="32" height="32" fill="white"/>
</clipPath>
</defs>
</svg>