<svg xmlns="http://www.w3.org/2000/svg" width="32" height="32" viewBox="0 0 32 32" fill="none">
<g clip-path="url(#clip0)">
<path d="M8.99996 7.33333C8.26396 7.33333 7.66663 6.736 7.66663 6V1.33333C7.66663 0.597333 8.26396 0 8.99996 0C9.73596 0 10.3333 0.597333 10.3333 1.33333V6C10.3333 6.736 9.73596 7.33333 8.99996 7.33333Z" fill="white"/>
<path d="M15.3333 7.33333C14.5973 7.33333 14 6.736 14 6V1.33333C14 0.597333 14.5973 0 15.3333 0C16.0693 0 16.6667 0.597333 16.6667 1.33333V6C16.6667 6.736 16.0693 7.33333 15.3333 7.33333Z" fill="white"/>
<path d="M21.6667 7.33333C20.9306 7.33333 20.3333 6.736 20.3333 6V1.33333C20.3333 0.597333 20.9306 0 21.6667 0C22.4027 0 23 0.597333 23 1.33333V6C23 6.736 22.4027 7.33333 21.6667 7.33333Z" fill="white"/>
<path d="M24.3333 3H6.33329C4.31063 3 2.66663 4.644 2.66663 6.66667V28.3333C2.66663 30.356 4.31063 32 6.33329 32H24.3333C26.356 32 28 30.356 28 28.3333V6.66667C28 4.644 26.356 3 24.3333 3ZM9.33329 10.6667H16C16.736 10.6667 17.3333 11.264 17.3333 12C17.3333 12.736 16.736 13.3333 16 13.3333H9.33329C8.59729 13.3333 7.99996 12.736 7.99996 12C7.99996 11.264 8.59729 10.6667 9.33329 10.6667ZM22.6666 24H9.33329C8.59729 24 7.99996 23.4027 7.99996 22.6667C7.99996 21.9307 8.59729 21.3333 9.33329 21.3333H22.6666C23.4026 21.3333 24 21.9307 24 22.6667C24 23.4027 23.4026 24 22.6666 24ZM22.6666 18.6667H9.33329C8.59729 18.6667 7.99996 18.0693 7.99996 17.3333C7.99996 16.5973 8.59729 16 9.33329 16H22.6666C23.4026 16 24 16.5973 24 17.3333C24 18.0693 23.4026 18.6667 22.6666 18.6667Z" fill="white"/>
</g>
<defs>
<clipPath id="clip0">
<rect width="32" height="32" fill="white"/>
</clipPath>
</defs>
</svg>