<svg xmlns="http://www.w3.org/2000/svg" width="32" height="32" viewBox="0 0 32 32" fill="none">
<path d="M21.212 21.1637L32 27.9837V14.0557L21.212 21.1637Z" fill="white"/>
<path d="M0 14.0557V27.9837L10.788 21.1637L0 14.0557Z" fill="white"/>
<path d="M16.53 0.151752C16.206 -0.0502482 15.794 -0.0502482 15.47 0.151752L0 9.99975V11.6618L16 22.2038L32 11.6618V9.99975L16.53 0.151752Z" fill="white"/>
<path d="M19.38 22.3718L16.55 24.2358C16.382 24.3458 16.192 24.3998 16 24.3998C15.808 24.3998 15.618 24.3458 15.45 24.2358L12.62 22.3698L0.0640259 30.3118C0.218026 31.2618 1.00603 31.9998 2.00003 31.9998H30C30.994 31.9998 31.782 31.2618 31.936 30.3118L19.38 22.3718Z" fill="white"/>
</svg>