<svg xmlns="http://www.w3.org/2000/svg" width="32" height="32" viewBox="0 0 32 32" fill="none">
<g clip-path="url(#clip0)">
<path d="M13.2138 14.9393H18.7862C19.3369 14.9393 19.7833 14.493 19.7833 13.9423V10.5526C19.7833 8.4665 18.0861 6.76935 16 6.76935C13.9139 6.76935 12.2167 8.4665 12.2167 10.5526V13.9423C12.2167 14.493 12.6631 14.9393 13.2138 14.9393Z" fill="white"/>
<path d="M16 6.06942C17.6623 6.06942 19.0147 4.71706 19.0147 3.05474C19.0147 1.39249 17.6623 0.0401306 16 0.0401306C14.3378 0.0401306 12.9854 1.39249 12.9854 3.05474C12.9854 4.71706 14.3378 6.06942 16 6.06942Z" fill="white"/>
<path d="M3.78327 23.7899C1.69715 23.7899 0 25.487 0 27.5731V30.9628C0 31.5135 0.446362 31.9599 0.99704 31.9599H6.56943C7.12011 31.9599 7.56647 31.5135 7.56647 30.9628V27.5731C7.56647 25.487 5.86933 23.7899 3.78327 23.7899Z" fill="white"/>
<path d="M3.78329 23.09C5.44554 23.09 6.7979 21.7376 6.7979 20.0754C6.7979 18.413 5.44554 17.0607 3.78329 17.0607C2.12098 17.0607 0.768616 18.413 0.768616 20.0754C0.768616 21.7375 2.12098 23.09 3.78329 23.09Z" fill="white"/>
<path d="M28.2168 23.7899C26.1306 23.7899 24.4335 25.487 24.4335 27.5731V30.9628C24.4335 31.5135 24.8799 31.9599 25.4306 31.9599H31.003C31.5537 31.9599 32 31.5135 32 30.9628V27.5731C32 25.487 30.3028 23.7899 28.2168 23.7899Z" fill="white"/>
<path d="M28.2168 23.09C29.8791 23.09 31.2314 21.7376 31.2314 20.0754C31.2314 18.413 29.8791 17.0607 28.2168 17.0607C26.5545 17.0607 25.2021 18.413 25.2021 20.0754C25.2021 21.7375 26.5545 23.09 28.2168 23.09Z" fill="white"/>
<path d="M21.2597 25.4552L16.997 22.7403V18.4099C16.997 17.8592 16.5507 17.4129 16 17.4129C15.4493 17.4129 15.003 17.8592 15.003 18.4099V22.7403L10.7403 25.4552C10.2744 25.7519 10.14 26.3687 10.435 26.8317C10.7307 27.2962 11.3469 27.433 11.8115 27.1371L16.0001 24.4694C20.4672 27.3145 20.3128 27.2932 20.7232 27.2932C21.714 27.2933 22.1011 25.991 21.2597 25.4552Z" fill="white"/>
</g>
<defs>
<clipPath id="clip0">
<rect width="32" height="32" fill="white"/>
</clipPath>
</defs>
</svg>