<svg width="64" height="64" viewBox="0 0 64 64" fill="none" xmlns="http://www.w3.org/2000/svg">
<g clip-path="url(#clip0)">
<path d="M1.07485 28.6106L29.7896 2.44586C31.0499 1.29724 32.9505 1.29736 34.2104 2.44574L62.9252 28.6107C63.9349 29.5307 64.2684 30.9482 63.7751 32.2218C63.2817 33.4954 62.0805 34.3183 60.7146 34.3183H56.1284V60.5334C56.1284 61.5728 55.2856 62.4155 54.2463 62.4155H38.507C37.4677 62.4155 36.6249 61.5729 36.6249 60.5334V44.6164H27.3747V60.5335C27.3747 61.5729 26.5319 62.4156 25.4926 62.4156H9.75409C8.71471 62.4156 7.87197 61.573 7.87197 60.5335V34.3183H3.28485C1.9191 34.3183 0.717728 33.4953 0.224354 32.2218C-0.268272 30.9481 0.0652275 29.5307 1.07485 28.6106Z" fill="white"/>
<path d="M8.3636 5.34123H21.0034L6.48148 18.5457V7.22323C6.48148 6.18386 7.3241 5.34123 8.3636 5.34123Z" fill="white"/>
</g>
<defs>
<clipPath id="clip0">
<rect width="64" height="64" fill="white" transform="matrix(-1 0 0 1 64 0)"/>
</clipPath>
</defs>
</svg>
