<svg width="64" height="64" viewBox="0 0 64 64" fill="none" xmlns="http://www.w3.org/2000/svg">
<g clip-path="url(#clip0)">
<path d="M13.8426 34.768C13.3466 34.5626 12.7732 34.6746 12.3892 35.056L7.99999 39.448L3.61061 35.0586C3.22924 34.6772 2.65324 34.5652 2.15724 34.7706C1.65861 34.9732 1.33324 35.4612 1.33324 36V62.6666C1.33324 63.4026 1.93061 64 2.66661 64H13.3332C14.0692 64 14.6666 63.4026 14.6666 62.6666V36C14.6666 35.4613 14.3414 34.9733 13.8426 34.768Z" fill="white"/>
<path d="M30.2774 29.7226L24.944 24.3892C24.424 23.8692 23.5786 23.8692 23.0586 24.3892L17.7252 29.7226C17.4746 29.9732 17.3332 30.312 17.3332 30.6666V62.6666C17.3332 63.4026 17.9306 64 18.6666 64H29.3332C30.0692 64 30.6666 63.4026 30.6666 62.6666V30.6666C30.6666 30.312 30.5254 29.9734 30.2774 29.7226Z" fill="white"/>
<path d="M46.2773 24.3894L40.944 19.056C40.424 18.536 39.5786 18.536 39.0586 19.056L33.7252 24.3894C33.4746 24.64 33.3332 24.9788 33.3332 25.3334V62.6668C33.3332 63.4028 33.9306 64.0001 34.6666 64.0001H45.3332C46.0692 64.0001 46.6666 63.4028 46.6666 62.6668V25.3334C46.6666 24.9786 46.5253 24.64 46.2773 24.3894Z" fill="white"/>
<path d="M62.2773 16.3894L59.6107 13.7228C59.3601 13.4748 59.0213 13.3334 58.6667 13.3334H56C55.6453 13.3334 55.3066 13.4748 55.056 13.7228L49.7226 19.0561C49.4746 19.3068 49.3332 19.6455 49.3332 20.0001V62.6668C49.3332 63.4028 49.9306 64.0001 50.6666 64.0001H61.3332C62.0692 64.0001 62.6666 63.4028 62.6666 62.6668V17.3334C62.6666 16.9786 62.5253 16.64 62.2773 16.3894Z" fill="white"/>
<path d="M61.3334 0H53.3334C52.7948 0 52.3068 0.325375 52.1014 0.824C51.896 1.32263 52.0107 1.896 52.3894 2.27737L55.448 5.33337L45.3334 15.448L40.944 11.0586C40.424 10.5386 39.5786 10.5386 39.0586 11.0586L29.3333 20.7812L24.9439 16.3892C24.4239 15.8692 23.5785 15.8692 23.0585 16.3892L8 31.448L3.61063 27.0586C3.09063 26.5386 2.24525 26.5386 1.72525 27.0586C1.20525 27.5786 1.20525 28.424 1.72525 28.944L7.05863 34.2774C7.31725 34.536 7.65863 34.6668 8 34.6668C8.34138 34.6668 8.68263 34.5361 8.944 34.2774L24 19.2186L28.3894 23.608C28.9094 24.128 29.7547 24.128 30.2747 23.608L40 13.8854L44.3894 18.2747C44.9094 18.7948 45.7547 18.7948 46.2747 18.2747L57.3334 7.21875L60.3894 10.2747C60.6454 10.5307 60.9867 10.6667 61.3334 10.6667C61.504 10.6667 61.68 10.6348 61.8428 10.5654C62.3414 10.36 62.6668 9.872 62.6668 9.33337V1.33337C62.6666 0.597375 62.0694 0 61.3334 0Z" fill="white"/>
</g>
<defs>
<clipPath id="clip0">
<rect width="64" height="64" fill="white"/>
</clipPath>
</defs>
</svg>
