<svg width="64" height="64" viewBox="0 0 64 64" fill="none" xmlns="http://www.w3.org/2000/svg">
<g clip-path="url(#clip0)">
<path d="M24.9526 27.5093C23.8062 27.5093 22.8771 26.5802 22.8771 25.4338V24.7713C22.8771 23.625 23.8062 22.6958 24.9526 22.6958C26.0989 22.6958 27.0281 23.625 27.0281 24.7713V25.4338C27.0281 26.5802 26.0989 27.5093 24.9526 27.5093ZM39.0474 25.4338V24.7713C39.0474 23.625 38.1182 22.6958 36.9719 22.6958C35.8256 22.6958 34.8964 23.625 34.8964 24.7713V25.4338C34.8964 26.5802 35.8256 27.5093 36.9719 27.5093C38.1182 27.5093 39.0474 26.5802 39.0474 25.4338ZM58.5926 18.0739C58.5926 19.2193 57.6638 20.1494 56.5171 20.1494H49.5991V25.132C49.5991 34.5359 42.3222 43.4225 30.6159 43.4225C20.5301 43.4225 12.3254 35.2177 12.3254 25.132V18.2905C12.3254 8.8866 19.6023 0 31.3086 0C40.6186 0 48.3253 6.99061 49.4564 15.9984H56.5171C57.6638 15.9984 58.5926 16.9272 58.5926 18.0739ZM28.3276 11.9576C29.9592 13.5892 31 13 32.0649 12.6308C34.0068 11.9576 34.8437 10.3978 33.532 9.08819L32.3645 7.92071C31.5551 7.10996 30.2397 7.10996 29.4302 7.92071L28.3276 9.02333C27.5169 9.83278 27.5169 11.1481 28.3276 11.9576ZM45.4481 20.1494H16.4764V25.132C16.4764 32.9281 22.8197 39.2715 30.6159 39.2715H31.3086C39.1048 39.2715 45.4481 32.9281 45.4481 25.132V20.1494ZM31.2152 51.6038C35.3434 51.3467 36.1443 45.4844 33.1199 45.4844H28.805C27.9491 45.4844 27.2046 46.0903 27.0523 46.9326C26.5947 49.4649 28.6378 51.7644 31.2152 51.6038ZM40.8642 45.4844C39.8396 45.4844 39.0463 46.3409 39.0813 47.3603C39.2394 51.9449 35.5513 55.7628 30.9621 55.7628C26.3768 55.7628 22.6847 51.9487 22.8429 47.3603C22.8781 46.3395 22.0828 45.4844 21.0615 45.4844C12.4283 45.4844 5.40725 52.479 5.40725 61.1373V61.9245C5.40725 63.0708 6.33643 64 7.48277 64H54.4414C55.5878 64 56.517 63.0708 56.517 61.9245V61.1373C56.5171 52.4925 49.5091 45.4844 40.8642 45.4844Z" fill="white"/>
</g>
<defs>
<clipPath id="clip0">
<rect width="64" height="64" fill="white"/>
</clipPath>
</defs>
</svg>
