<svg width="64" height="64" viewBox="0 0 64 64" fill="none" xmlns="http://www.w3.org/2000/svg">
<path d="M26.375 33.875H37.625V37.625H26.375V33.875Z" fill="white"/>
<path d="M51.9224 37.625H41.375V39.5C41.375 40.5361 40.5361 41.375 39.5 41.375H24.5C23.4639 41.375 22.625 40.5361 22.625 39.5V37.625H12.0776C9.65332 37.625 7.50928 36.0796 6.7417 33.7798L0 13.5513V54.5C0 57.6016 2.52344 60.125 5.625 60.125H58.375C61.4766 60.125 64 57.6016 64 54.5V13.5527L57.2578 33.7798C56.4907 36.0796 54.3467 37.625 51.9224 37.625Z" fill="white"/>
<path d="M39.5 3.875H24.5C21.3984 3.875 18.875 6.39844 18.875 9.5V11.375H3.22607L10.2979 32.5933C10.5542 33.3604 11.27 33.875 12.0776 33.875H22.625V32C22.625 30.9639 23.4639 30.125 24.5 30.125H39.5C40.5361 30.125 41.375 30.9639 41.375 32V33.875H51.9224C52.73 33.875 53.4458 33.3604 53.7021 32.5933L60.7744 11.375H45.125V9.5C45.125 6.39844 42.6016 3.875 39.5 3.875ZM22.625 11.375V9.5C22.625 8.46533 23.4653 7.625 24.5 7.625H39.5C40.5347 7.625 41.375 8.46533 41.375 9.5V11.375H22.625Z" fill="white"/>
</svg>
