<svg width="64" height="64" viewBox="0 0 64 64" fill="none" xmlns="http://www.w3.org/2000/svg">
<g clip-path="url(#clip0)">
<path d="M5.14269 37.6684H2.85702C1.27921 37.6684 0 38.9475 0 40.5255V61.0961C0 62.6741 1.27921 63.9531 2.85702 63.9531H5.14269C6.72064 63.9531 7.99972 62.6741 7.99972 61.0961V40.5255C7.99972 38.9475 6.72064 37.6684 5.14269 37.6684Z" fill="white"/>
<path d="M63.5978 45.8853C63.0892 45.1953 62.1952 44.9096 61.3807 45.1767L55.5523 47.1195C55.3577 47.2857 55.1111 47.3787 54.8552 47.3824C54.8323 47.3824 54.821 47.371 54.7981 47.371L40.2157 52.2279C39.6337 52.4237 39.024 52.5239 38.41 52.525H28.2618C26.456 52.5207 24.6896 53.0538 23.1877 54.0564L22.342 54.6164C22.0031 54.841 21.5701 54.8676 21.2063 54.6865C20.8424 54.5054 20.6028 54.1437 20.5777 53.7379C20.5525 53.332 20.7459 52.9438 21.0849 52.7193L21.9191 52.1593C23.7958 50.9039 26.0038 50.2355 28.2618 50.2394H35.1988C35.9255 49.2683 35.9932 47.9543 35.3701 46.9137L35.2673 46.7424C34.4387 45.3683 32.952 44.5273 31.3474 44.5253H25.3705C22.745 44.5226 20.1983 43.628 18.1479 41.9883C16.4984 40.6732 14.4519 39.9561 12.3423 39.9541H10.2283C10.2586 40.1432 10.2776 40.3341 10.2854 40.5255V61.0961C10.2796 61.6819 10.1714 62.262 9.9654 62.8103H38.0558C39.3129 62.8109 40.5461 62.4671 41.6214 61.8161L63.0378 48.7766C63.5208 48.4864 63.8574 48.0043 63.9635 47.4509C64.0711 46.9007 63.938 46.3308 63.5978 45.8853Z" fill="white"/>
<path fill-rule="evenodd" clip-rule="evenodd" d="M20 22C20 9.8691 29.8691 0 42 0C54.1311 0 64 9.8691 64 22C64 34.1309 54.1309 44 42 44C29.8693 44 20 34.1309 20 22ZM49.9634 27.6858C49.7985 29.3218 48.9929 30.8012 47.7887 31.8055C46.5172 32.866 44.9225 33.3593 43.338 33.4974V35.305C43.338 35.7886 43.1417 36.2564 42.8053 36.5766C42.3429 37.0169 41.6634 37.1255 41.1022 36.8472C40.5481 36.5728 40.184 35.9612 40.184 35.305V33.3294C39.9123 33.2739 39.6426 33.2078 39.376 33.1291C37.8951 32.6912 36.5215 31.8377 35.5182 30.5748C35.0183 29.9454 34.6109 29.2312 34.3291 28.4601C34.2554 28.2586 34.1898 28.0534 34.1323 27.8459L34.129 27.8338C34.078 27.6498 34.0262 27.4629 34.008 27.2713C33.9768 26.9429 34.0373 26.6078 34.1796 26.3152C34.4719 25.7133 35.088 25.3498 35.7171 25.4102C36.3363 25.4693 36.8789 25.9317 37.0739 26.5669C37.099 26.6488 37.1208 26.7317 37.1425 26.8145L37.1426 26.8146L37.1426 26.8146C37.1727 26.9294 37.2029 27.0441 37.2421 27.1565C37.3089 27.3488 37.3896 27.5357 37.4845 27.7136C37.6719 28.064 37.9066 28.3871 38.177 28.6675C38.7342 29.2453 39.444 29.6208 40.184 29.8442V23.1288C38.7371 22.7256 37.2436 22.205 36.0487 21.2052C35.4681 20.7191 34.9754 20.1151 34.6527 19.4002C34.3122 18.6457 34.1711 17.8052 34.1654 16.9704C34.1595 16.1227 34.3091 15.2825 34.6377 14.5102C34.9455 13.787 35.3886 13.1378 35.9318 12.5995C37.0935 11.4489 38.6365 10.8071 40.1842 10.5714V8.69499C40.1842 8.21148 40.3805 7.74357 40.7169 7.4234C41.1794 6.98325 41.8586 6.87447 42.42 7.15275C42.9739 7.4273 43.3381 8.03873 43.3381 8.69499V10.5611C43.5443 10.5891 43.75 10.6225 43.9545 10.6624C45.4743 10.9584 46.9608 11.6338 48.0722 12.813C48.5987 13.3715 49.0297 14.037 49.3328 14.7628C49.4174 14.9653 49.4915 15.1724 49.5556 15.3836C49.6153 15.5806 49.6754 15.7834 49.7039 15.9889C49.7495 16.317 49.703 16.656 49.5725 16.9562C49.3052 17.5713 48.7056 17.9629 48.0749 17.9338C47.4551 17.9047 46.8936 17.4704 46.6717 16.847C46.6394 16.7562 46.6149 16.6627 46.5905 16.5693L46.5905 16.5693C46.565 16.472 46.5396 16.3747 46.5052 16.2803C46.4371 16.0932 46.349 15.9146 46.2475 15.7459C46.0502 15.4179 45.7944 15.1367 45.5025 14.905C44.8704 14.4027 44.1037 14.141 43.3377 13.9947V20.4211C44.2481 20.6557 45.1593 20.9116 46.0316 21.2818C47.35 21.8413 48.5993 22.6992 49.3189 24.0519C49.2073 23.8412 49.0986 23.6358 49.3227 24.0589C49.5366 24.4632 49.4431 24.2869 49.3362 24.0852L49.3272 24.0682C49.8997 25.154 50.0878 26.4524 49.9634 27.6858ZM37.3314 16.6322C37.3671 16.2402 37.4967 15.8715 37.7032 15.547C38.2548 14.6803 39.2621 14.2283 40.184 14.0166V19.6017C39.8191 19.4812 39.4806 19.3565 39.1796 19.2262C38.8208 19.071 38.4686 18.8878 38.1483 18.6534C37.8629 18.4439 37.5863 18.1838 37.4543 17.8315C37.3157 17.4618 37.2956 17.0249 37.3314 16.6322ZM45.5052 24.7447C45.8183 24.9206 46.1212 25.1316 46.3606 25.4138C46.5838 25.677 46.7212 25.9962 46.7877 26.3439C46.9104 26.9857 46.8505 27.6941 46.5494 28.2706C45.9186 29.4776 44.5394 29.9468 43.3381 30.093V23.9208C44.0782 24.1302 44.8237 24.3622 45.5052 24.7447Z" fill="white"/>
</g>
<defs>
<clipPath id="clip0">
<rect width="64" height="64" fill="white"/>
</clipPath>
</defs>
</svg>
