<?xml version="1.0"?>
<svg xmlns="http://www.w3.org/2000/svg" xmlns:xlink="http://www.w3.org/1999/xlink" xmlns:svgjs="http://svgjs.com/svgjs" version="1.1" width="512" height="512" x="0" y="0" viewBox="0 0 64 64" style="enable-background:new 0 0 512 512" xml:space="preserve" class=""><g><g xmlns="http://www.w3.org/2000/svg" id="house-building-home-calulator"><path d="m43 53h3v3h-3z" fill="#ffffff" data-original="#000000" style="" class=""/><path d="m43 45h3v3h-3z" fill="#ffffff" data-original="#000000" style="" class=""/><path d="m43 37h3v3h-3z" fill="#ffffff" data-original="#000000" style="" class=""/><path d="m52 45h3v11h-3z" fill="#ffffff" data-original="#000000" style="" class=""/><path d="m34 45h3v3h-3z" fill="#ffffff" data-original="#000000" style="" class=""/><path d="m15 37h9v19h-9z" fill="#ffffff" data-original="#000000" style="" class=""/><path d="m29 56v-31a2.927 2.927 0 0 1 .15-.9 5 5 0 1 1 7.43-2.1h18.42v-1.21l-23-8.72-23 8.72v35.21h4v-20a1 1 0 0 1 1-1h11a1 1 0 0 1 1 1v20z" fill="#ffffff" data-original="#000000" style="" class=""/><path d="m52 37h3v3h-3z" fill="#ffffff" data-original="#000000" style="" class=""/><path d="m34 37h3v3h-3z" fill="#ffffff" data-original="#000000" style="" class=""/><path d="m34 53h3v3h-3z" fill="#ffffff" data-original="#000000" style="" class=""/><path d="m49 8.38v-4.38h-6v2.1z" fill="#ffffff" data-original="#000000" style="" class=""/><path d="m31 25v34a1 1 0 0 0 1 1h25a1 1 0 0 0 1-1v-34a1 1 0 0 0 -1-1h-25a1 1 0 0 0 -1 1zm8 32a1 1 0 0 1 -1 1h-5a1 1 0 0 1 -1-1v-5a1 1 0 0 1 1-1h5a1 1 0 0 1 1 1zm0-8a1 1 0 0 1 -1 1h-5a1 1 0 0 1 -1-1v-5a1 1 0 0 1 1-1h5a1 1 0 0 1 1 1zm0-8a1 1 0 0 1 -1 1h-5a1 1 0 0 1 -1-1v-5a1 1 0 0 1 1-1h5a1 1 0 0 1 1 1zm9 16a1 1 0 0 1 -1 1h-5a1 1 0 0 1 -1-1v-5a1 1 0 0 1 1-1h5a1 1 0 0 1 1 1zm0-8a1 1 0 0 1 -1 1h-5a1 1 0 0 1 -1-1v-5a1 1 0 0 1 1-1h5a1 1 0 0 1 1 1zm0-8a1 1 0 0 1 -1 1h-5a1 1 0 0 1 -1-1v-5a1 1 0 0 1 1-1h5a1 1 0 0 1 1 1zm9 16a1 1 0 0 1 -1 1h-5a1 1 0 0 1 -1-1v-13a1 1 0 0 1 1-1h5a1 1 0 0 1 1 1zm0-16a1 1 0 0 1 -1 1h-5a1 1 0 0 1 -1-1v-5a1 1 0 0 1 1-1h5a1 1 0 0 1 1 1zm-24-15h23a1 1 0 0 1 1 1v6a1 1 0 0 1 -1 1h-23a1 1 0 0 1 -1-1v-6a1 1 0 0 1 1-1z" fill="#ffffff" data-original="#000000" style="" class=""/><path d="m32 10a.842.842 0 0 1 .35.07l27.65 10.48v-5.86l-28-10.62-28 10.62v5.86l27.65-10.48a.842.842 0 0 1 .35-.07z" fill="#ffffff" data-original="#000000" style="" class=""/><path d="m29 59v-1h-27v2h27.18a3 3 0 0 1 -.18-1z" fill="#ffffff" data-original="#000000" style="" class=""/><path d="m30.35 22.5a2.945 2.945 0 0 1 1.65-.5h2.21a2.992 2.992 0 1 0 -5.21-2 3.039 3.039 0 0 0 1.35 2.5z" fill="#ffffff" data-original="#000000" style="" class=""/><path d="m60 59a3 3 0 0 1 -.18 1h2.18v-2h-2z" fill="#ffffff" data-original="#000000" style="" class=""/><path d="m34 28h21v4h-21z" fill="#ffffff" data-original="#000000" style="" class=""/></g></g></svg>
